<svg width="141.59169921875px" height="58.4px" xmlns="http://www.w3.org/2000/svg" viewBox="179.204150390625 45.8 141.59169921875 58.4" style="background: rgba(0, 0, 0, 0);" preserveAspectRatio="xMidYMid"><defs><filter id="editing-extrusion" x="-100%" y="-100%" width="300%" height="300%"><feFlood result="color1" flood-color="#444"></feFlood><feConvolveMatrix order="8,8" divisor="1" kernelMatrix="1 0 0 0 0 0 0 0 0 1 0 0 0 0 0 0 0 0 1 0 0 0 0 0 0 0 0 1 0 0 0 0 0 0 0 0 1 0 0 0 0 0 0 0 0 1 0 0 0 0 0 0 0 0 1 0 0 0 0 0 0 0 0 1" in="SourceAlpha" result="extrude"></feConvolveMatrix><feComposite in="color1" in2="extrude" result="comp-extrude" operator="in"></feComposite><feOffset dx="4" dy="4" in="comp-extrude" result="offset-extrude"></feOffset><feMerge><feMergeNode in="offset-extrude"></feMergeNode><feMergeNode in="SourceGraphic"></feMergeNode></feMerge></filter></defs><g filter="url(#editing-extrusion)"><g transform="translate(205.63523697853088, 83.88000202178955)"><path d="M2.33-11.69L2.33-11.69L2.33-11.69Q1.51-12.31 1.51-13.64L1.51-13.64L1.51-13.64Q1.51-14.98 2.39-15.67L2.39-15.67L2.39-15.67Q3.26-16.37 4.78-16.37L4.78-16.37L4.78-16.37Q5.74-16.37 8.02-16.03L8.02-16.03L9.65-15.79L9.65-15.79Q10.46-15.70 11.32-15.70L11.32-15.70L11.32-15.70Q12.17-15.70 12.74-16.06L12.74-16.06L12.74-16.06Q13.61-15.29 13.61-14.18L13.61-14.18L13.61-14.18Q13.61-13.08 12.62-12.29L12.62-12.29L12.62-12.29Q11.62-11.45 10.32-11.45L10.32-11.45L10.32-11.45Q9.70-11.45 8.69-11.62L8.69-11.62L8.69-11.62Q7.51-7.92 7.51-5.35L7.51-5.35L7.51-5.35Q7.51-2.78 8.81-1.44L8.81-1.44L8.81-1.44Q8.21-0.36 7.32 0.06L7.32 0.06L7.32 0.06Q6.43 0.48 5.10 0.48L5.10 0.48L5.10 0.48Q3.77 0.48 2.94-0.25L2.94-0.25L2.94-0.25Q2.11-0.98 2.11-2.50L2.11-2.50L2.11-2.50Q2.11-4.25 3.07-7.13L3.07-7.13L3.07-7.13Q4.03-9.98 5.47-12.17L5.47-12.17L5.47-12.17Q4.78-12.24 4.06-12.24L4.06-12.24L4.06-12.24Q2.57-12.24 2.33-11.69ZM20.21-6.74L20.21-6.74L20.21-6.74Q21.07-8.28 21.07-9.84L21.07-9.84L21.07-9.84Q21.07-10.87 20.33-10.87L20.33-10.87L20.33-10.87Q19.75-10.87 19.15-9.89L19.15-9.89L19.15-9.89Q18.53-8.90 18.34-7.63L18.34-7.63L17.09 0L12.12 0.48L14.57-12.24L18.53-12.72L18.10-10.30L18.10-10.30Q19.27-12.72 21.91-12.72L21.91-12.72L21.91-12.72Q23.30-12.72 24.06-12L24.06-12L24.06-12Q24.82-11.28 24.82-9.80L24.82-9.80L24.82-9.80Q24.82-8.33 23.84-7.39L23.84-7.39L23.84-7.39Q22.87-6.46 21.22-6.46L21.22-6.46L21.22-6.46Q20.50-6.46 20.21-6.74ZM26.24-0.72L26.24-0.72L26.24-0.72Q25.68-1.34 25.43-2.33L25.43-2.33L25.43-2.33Q25.18-3.31 25.18-4.92L25.18-4.92L25.18-4.92Q25.18-6.53 25.73-7.99L25.73-7.99L25.73-7.99Q26.28-9.46 27.29-10.51L27.29-10.51L27.29-10.51Q29.35-12.72 32.76-12.72L32.76-12.72L32.76-12.72Q33.98-12.72 34.87-12.31L34.87-12.31L38.98-12.72L37.20-3.36L37.20-3.36Q37.13-3.07 37.13-2.54L37.13-2.54L37.13-2.54Q37.13-2.02 37.45-1.68L37.45-1.68L37.45-1.68Q37.78-1.34 38.26-1.30L38.26-1.30L38.26-1.30Q38.02-0.48 37.14 0L37.14 0L37.14 0Q36.26 0.48 35.28 0.48L35.28 0.48L35.28 0.48Q34.30 0.48 33.64 0.11L33.64 0.11L33.64 0.11Q32.98-0.26 32.78-0.89L32.78-0.89L32.78-0.89Q32.40-0.29 31.58 0.10L31.58 0.10L31.58 0.10Q30.77 0.48 29.68 0.48L29.68 0.48L29.68 0.48Q28.58 0.48 27.70 0.19L27.70 0.19L27.70 0.19Q26.81-0.10 26.24-0.72ZM31.31-10.46L31.31-10.46L31.31-10.46Q31.03-10.03 30.79-9.30L30.79-9.30L30.79-9.30Q30.55-8.57 30.16-6.61L30.16-6.61L30.16-6.61Q29.76-4.66 29.76-3.26L29.76-3.26L29.76-3.26Q29.76-1.87 29.98-1.46L29.98-1.46L29.98-1.46Q30.19-1.06 30.58-1.06L30.58-1.06L30.58-1.06Q31.34-1.06 31.91-1.79L31.91-1.79L31.91-1.79Q32.47-2.52 32.69-3.82L32.69-3.82L33.96-10.85L33.96-10.85Q33.46-11.28 32.87-11.28L32.87-11.28L32.87-11.28Q32.28-11.28 31.93-11.09L31.93-11.09L31.93-11.09Q31.58-10.90 31.31-10.46ZM51.96-9.98L51.96-9.98L51.96-9.98Q51.96-8.98 51.12-8.35L51.12-8.35L51.12-8.35Q50.28-7.73 48.91-7.73L48.91-7.73L48.91-7.73Q48.34-7.73 48.00-7.90L48.00-7.90L48.00-7.90Q48.26-8.52 48.35-9.30L48.35-9.30L48.35-9.30Q48.43-10.08 48.43-10.30L48.43-10.30L48.43-10.30Q48.43-11.30 47.74-11.30L47.74-11.30L47.74-11.30Q47.26-11.30 46.72-10.70L46.72-10.70L46.72-10.70Q46.18-10.10 45.72-9.17L45.72-9.17L45.72-9.17Q44.71-7.01 44.71-4.82L44.71-4.82L44.71-4.82Q44.71-3.62 45.17-3.08L45.17-3.08L45.17-3.08Q45.62-2.54 46.63-2.54L46.63-2.54L46.63-2.54Q48.02-2.54 49.13-3.70L49.13-3.70L49.13-3.70Q49.44-4.06 49.61-4.46L49.61-4.46L49.61-4.46Q50.52-3.98 50.52-2.66L50.52-2.66L50.52-2.66Q50.52-1.32 49.03-0.43L49.03-0.43L49.03-0.43Q47.50 0.48 45.05 0.48L45.05 0.48L45.05 0.48Q40.18 0.48 40.18-4.68L40.18-4.68L40.18-4.68Q40.18-8.45 42.31-10.61L42.31-10.61L42.31-10.61Q44.38-12.72 48.17-12.72L48.17-12.72L48.17-12.72Q51.96-12.72 51.96-9.98ZM58.80-11.38L58.80-11.38L58.80-11.38Q60.10-12.72 62.83-12.72L62.83-12.72L62.83-12.72Q64.34-12.72 65.17-11.92L65.17-11.92L65.17-11.92Q66.00-11.11 66.00-9.64L66.00-9.64L66.00-9.64Q66.00-8.16 65.17-7.12L65.17-7.12L65.17-7.12Q64.34-6.07 62.81-5.64L62.81-5.64L62.81-5.64Q62.93-5.16 63.10-4.66L63.10-4.66L63.43-3.70L63.43-3.70Q63.89-2.47 64.25-2.04L64.25-2.04L64.25-2.04Q64.61-1.61 65.09-1.46L65.09-1.46L65.09-1.46Q64.82-0.48 63.86 0.05L63.86 0.05L63.86 0.05Q63.10 0.48 62.04 0.48L62.04 0.48L62.04 0.48Q58.94 0.48 58.54-4.30L58.54-4.30L58.54-4.30Q58.46-4.97 58.46-5.64L58.46-5.64L58.46-5.64Q59.66-5.98 60.50-7.10L60.50-7.10L60.50-7.10Q61.34-8.23 61.34-9.55L61.34-9.55L61.34-9.55Q61.34-10.87 60.41-10.87L60.41-10.87L60.41-10.87Q59.74-10.87 59.21-10.13L59.21-10.13L59.21-10.13Q58.68-9.38 58.44-8.11L58.44-8.11L56.86 0L52.01 0.48L55.37-16.80L60.19-17.28L59.64-14.42L59.64-14.42Q59.28-12.41 58.80-11.38ZM72.07 0L66.84 0L69.89-15.84L75.17-15.84L72.07 0ZM77.62-11.69L77.62-11.69L77.62-11.69Q76.80-12.31 76.80-13.64L76.80-13.64L76.80-13.64Q76.80-14.98 77.68-15.67L77.68-15.67L77.68-15.67Q78.55-16.37 80.06-16.37L80.06-16.37L80.06-16.37Q81.02-16.37 83.30-16.03L83.30-16.03L84.94-15.79L84.94-15.79Q85.75-15.70 86.60-15.70L86.60-15.70L86.60-15.70Q87.46-15.70 88.03-16.06L88.03-16.06L88.03-16.06Q88.90-15.29 88.90-14.18L88.90-14.18L88.90-14.18Q88.90-13.08 87.91-12.29L87.91-12.29L87.91-12.29Q86.90-11.45 85.61-11.45L85.61-11.45L85.61-11.45Q84.98-11.45 83.98-11.62L83.98-11.62L83.98-11.62Q82.80-7.92 82.80-5.35L82.80-5.35L82.80-5.35Q82.80-2.78 84.10-1.44L84.10-1.44L84.10-1.44Q83.50-0.36 82.61 0.06L82.61 0.06L82.61 0.06Q81.72 0.48 80.39 0.48L80.39 0.48L80.39 0.48Q79.06 0.48 78.23-0.25L78.23-0.25L78.23-0.25Q77.40-0.98 77.40-2.50L77.40-2.50L77.40-2.50Q77.40-4.25 78.36-7.13L78.36-7.13L78.36-7.13Q79.32-9.98 80.76-12.17L80.76-12.17L80.76-12.17Q80.06-12.24 79.34-12.24L79.34-12.24L79.34-12.24Q77.86-12.24 77.62-11.69Z" fill="#ccc"></path></g></g><style>text {
  font-size: 64px;
  font-family: Arial Black;
  dominant-baseline: central;
  text-anchor: middle;
}</style></svg>